<svg id="Layer_1" data-name="Layer 1" xmlns="http://www.w3.org/2000/svg" viewBox="0 0 2736 2736"><circle cx="1368" cy="1368" r="1368" style="fill:#e91e2c"/><path d="M2347.34,770.78l-117,253.81h0l-1.87,4-24.37,51.5-1431.9,40.82a36,36,0,0,1-33.2-19.29L577.24,783.32c-11.6-22.82,4.77-49.93,30.26-50.1L2316,721.87C2341.16,721.7,2357.9,747.88,2347.34,770.78Z" transform="translate(-94 -94)" style="fill:#e5e5e5"/><path d="M1846.7,1695.41,921,1490.46l155.35,322.34a34.52,34.52,0,0,0,23.18,18.6l649.05,153,121.51-239.92A34.41,34.41,0,0,0,1846.7,1695.41Z" transform="translate(-94 -94)" style="fill:#e5e5e5"/><path d="M1224.63,2007.81l583.78-141.57-206.56,407.84a34.51,34.51,0,0,1-23.18,18.05L1368,2339.85c-16.6,3.76-33.64-4.28-40.73-19.2L1201.58,2056A34.41,34.41,0,0,1,1224.63,2007.81Z" transform="translate(-94 -94)" style="fill:#fff"/><path d="M2228.44,1028.55,2192.73,1104l0,.06L2029.9,1425.5a34.52,34.52,0,0,1-23.12,18L1008.47,1672,872.65,1386.4A34.4,34.4,0,0,1,896,1338.13Z" transform="translate(-94 -94)" style="fill:#fff"/></svg>